Patient4_TMGait_0pt6_01_right_11_GRF.mot
version=1
nRows=71
nColumns=19
inDegrees=no
endheader
time	F1x	F1y	F1z	M1x	M1y	M1z	F2x	F2y	F2z	M2x	M2y	M2z	EC1x	EC1y	EC1z	EC2x	EC2y	EC2z
12.78	-3.9295	764.5174	41.575	-269.9759	-37.0567	672.8832	-8.5295	-8.5242	-10.4851	2.8493	11.6583	-11.7227	-0.0592	0.0182	-0.0073	-0.0462	0.0165	0.9585
12.7918	-4.081	766.5718	45.0026	-270.4052	-38.9648	670.7542	-5.7658	-4.8042	-7.4252	2.3643	8.2267	-6.9263	-0.0592	0.0182	-0.0073	-0.0462	0.0165	0.9585
12.8036	-3.7094	768.6456	47.9721	-270.7649	-40.3939	668.2991	-3.4737	-1.6371	-4.6905	1.9325	5.1905	-2.8417	-0.0592	0.0182	-0.0073	-0.0462	0.0165	0.9585
12.8154	-2.7527	770.3199	50.319	-270.9403	-41.2381	665.3171	-1.7711	0.8	-2.5239	1.5976	2.8065	0.30134	-0.0592	0.0182	-0.0073	-0.0462	0.0165	0.9585
12.8271	-1.2279	771.1806	51.9711	-270.8247	-41.4531	661.5591	-0.61472	2.5063	-0.95709	1.3673	1.0986	2.4834	-0.0592	0.0182	-0.0073	-0.0462	0.0165	0.9585
12.8389	0.82658	770.8654	53.0087	-270.3237	-41.1167	656.7781	0.068724	3.577	0.053899	1.2266	0.011223	3.8323	-0.0592	0.0182	-0.0073	-0.0462	0.0165	0.9585
12.8507	3.3154	769.165	53.5239	-269.3907	-40.3191	650.8271	0.41767	4.1359	0.62048	1.1479	-0.58782	4.5075	-0.0592	0.0182	-0.0073	-0.0462	0.0165	0.9585
12.8625	6.1629	766.0454	53.6335	-268.0353	-39.1652	643.6796	0.52077	4.3063	0.85052	1.098	-0.81645	4.6958	-0.0592	0.0182	-0.0073	-0.0462	0.0165	0.9585
12.8743	9.2563	761.6874	53.4212	-266.3322	-37.7363	635.5022	0.47604	4.1587	0.8484	1.0363	-0.79287	4.4987	-0.0592	0.0182	-0.0073	-0.0462	0.0165	0.9585
12.8861	12.5121	756.4197	52.9551	-264.4003	-36.0899	626.5625	0.32706	3.735	0.70015	0.92136	-0.6072	4.0009	-0.0592	0.0182	-0.0073	-0.0462	0.0165	0.9585
12.8979	15.8486	750.7	52.3127	-262.3907	-34.287	617.2586	0.12505	2.994	0.47024	0.69969	-0.33417	3.1782	-0.0592	0.0182	-0.0073	-0.0462	0.0165	0.9585
12.9096	19.2443	745.0161	51.5836	-260.4534	-32.3837	607.9941	-0.10361	1.8872	0.21364	0.32267	-0.034627	2.0026	-0.0592	0.0182	-0.0073	-0.0462	0.0165	0.9585
12.9214	22.6648	739.8536	50.893	-258.7272	-30.4607	599.1791	-0.30791	0.34886	-0.02917	-0.25097	0.23953	0.40239	-0.0592	0.0182	-0.0073	-0.0462	0.0165	0.9585
12.9332	26.1376	735.6349	50.3586	-257.3298	-28.5771	591.1614	-0.45457	-1.6418	-0.21848	-1.0353	0.43864	-1.6355	-0.0592	0.0182	-0.0073	-0.0462	0.0165	0.9585
12.945	29.6528	732.6519	50.1316	-256.3337	-26.8351	584.2104	-0.47199	-4.0194	-0.31199	-2	0.49733	-4.0534	-0.0592	0.0182	-0.0073	-0.0462	0.0165	0.9585
12.9568	33.2198	731.0692	50.3069	-255.7659	-25.3009	578.4752	-0.29509	-6.543	-0.25056	-3.0379	0.32974	-6.6052	-0.0592	0.0182	-0.0073	-0.0462	0.0165	0.9585
12.9686	36.788	730.8744	50.9751	-255.5898	-24.074	574.0031	0.17622	-8.7368	0.031475	-3.9372	-0.17012	-8.8203	-0.0592	0.0182	-0.0073	-0.0462	0.0165	0.9585
12.9804	40.2816	731.8108	52.1426	-255.6923	-23.2095	570.6412	1.0317	-9.7541	0.61485	-4.3322	-1.1221	-9.8387	-0.0592	0.0182	-0.0073	-0.0462	0.0165	0.9585
12.9921	43.5631	733.4269	53.7748	-255.9021	-22.7596	568.1028	2.3607	-8.3421	1.5782	-3.685	-2.6367	-8.4089	-0.0592	0.0182	-0.0073	-0.0462	0.0165	0.9585
13.0039	46.5388	735.1162	55.7236	-256.0093	-22.6754	565.9674	4.2033	-2.7627	2.9866	-1.2623	-4.7856	-2.7922	-0.0592	0.0182	-0.0073	-0.0462	0.0165	0.9585
13.0157	49.1036	736.1216	57.7865	-255.764	-22.8656	563.6991	6.5213	9.1032	4.8583	3.8256	-7.5569	9.1208	-0.0592	0.0182	-0.0073	-0.0462	0.0165	0.9585
13.0275	51.2168	735.5446	59.6909	-254.8812	-23.1642	560.6367	9.0949	29.5611	7.1122	12.535	-10.7681	29.6395	-0.0592	0.0182	-0.0073	-0.0462	0.0165	0.9585
13.0393	52.8506	732.3006	61.1453	-253.0234	-23.3809	555.9692	11.4887	60.6417	9.5032	25.6925	-13.9734	60.8048	-0.0592	0.0182	-0.0073	-0.0462	0.0165	0.9585
13.0511	53.9908	725.0814	61.853	-249.7877	-23.3191	548.7026	12.9187	103.34	11.5287	43.6753	-16.3285	103.6316	-0.0592	0.0182	-0.0073	-0.0462	0.0165	0.9585
13.0629	54.6158	712.3444	61.5126	-244.7031	-22.7715	537.6603	12.2223	156.6328	12.4299	65.9921	-16.5882	157.1168	-0.0592	0.0182	-0.0073	-0.0462	0.0165	0.9585
13.0746	54.7021	692.4277	59.8496	-237.2612	-21.5516	521.5628	8.3168	216.4755	11.3799	90.8746	-13.4922	217.22	-0.0592	0.0182	-0.0073	-0.0462	0.0165	0.9585
13.0864	54.1836	663.8004	56.6869	-226.9954	-19.5543	499.2037	1.4222	276.0872	7.4357	115.4388	-6.2578	277.0679	-0.0592	0.0182	-0.0073	-0.0462	0.0165	0.9585
13.0982	52.9463	625.4535	51.9946	-213.6005	-16.7962	469.7809	-7.0845	329.5663	0.69509	137.2394	4.3626	330.5147	-0.0592	0.0182	-0.0073	-0.0462	0.0165	0.9585
13.11	50.769	577.2159	45.9427	-197.0221	-13.4651	433.1551	-15.8879	375.3368	-7.8197	155.6321	16.7389	375.7847	-0.0592	0.0182	-0.0073	-0.0462	0.0165	0.9585
13.1218	47.4469	519.8453	38.8905	-177.4866	-9.8722	389.8816	-23.8537	414.7572	-16.9706	171.2462	29.2366	414.045	-0.0592	0.0182	-0.0073	-0.0462	0.0165	0.9585
13.1336	42.8451	455.0585	31.3271	-155.5206	-6.3834	341.2484	-30.2182	450.3779	-25.5891	185.2171	40.3647	447.7683	-0.0592	0.0182	-0.0073	-0.0462	0.0165	0.9585
13.1454	36.9422	385.4305	23.7777	-131.9383	-3.3433	289.1592	-34.5322	484.5655	-32.8912	198.5999	49.1762	479.2748	-0.0592	0.0182	-0.0073	-0.0462	0.0165	0.9585
13.1571	29.9178	314.2655	16.7827	-107.8046	-1.047	236.0404	-36.7803	518.903	-38.447	212.0983	55.2616	510.1576	-0.0592	0.0182	-0.0073	-0.0462	0.0165	0.9585
13.1689	22.1816	245.2635	10.7752	-84.3379	0.35591	184.6003	-37.1884	554.1294	-42.4735	226.0241	58.9645	541.1852	-0.0592	0.0182	-0.0073	-0.0462	0.0165	0.9585
13.1807	14.3401	182.0243	6.0122	-62.7535	0.89623	137.4676	-36.1757	590.3202	-45.3938	240.3886	60.9091	572.538	-0.0592	0.0182	-0.0073	-0.0462	0.0165	0.9585
13.1925	7.1551	127.4436	2.5388	-44.0552	0.79941	96.7429	-34.2231	626.941	-47.7848	254.9458	61.8921	603.8039	-0.0592	0.0182	-0.0073	-0.0462	0.0165	0.9585
13.2043	1.3311	83.0974	0.25421	-28.8114	0.36033	63.5694	-31.8842	663.001	-50.0367	269.2647	62.5448	634.1543	-0.0592	0.0182	-0.0073	-0.0462	0.0165	0.9585
13.2161	-2.7521	49.1848	-1.0551	-17.1191	-0.15135	38.0845	-29.6624	697.2114	-52.3735	282.8171	63.314	662.4749	-0.0592	0.0182	-0.0073	-0.0462	0.0165	0.9585
13.2279	-5.0528	24.8957	-1.6107	-8.7186	-0.57746	19.7183	-27.9231	728.4282	-54.6807	295.1513	64.2578	687.8005	-0.0592	0.0182	-0.0073	-0.0462	0.0165	0.9585
13.2396	-5.7823	8.8013	-1.656	-3.1345	-0.81824	7.4433	-26.759	755.7401	-56.654	305.9251	65.1448	709.3458	-0.0592	0.0182	-0.0073	-0.0462	0.0165	0.9585
13.2514	-5.4309	-0.73966	-1.3996	0.19151	-0.89494	0.066758	-26.1176	778.3667	-57.9537	314.8525	65.6356	726.4476	-0.0592	0.0182	-0.0073	-0.0462	0.0165	0.9585
13.2632	-4.5536	-5.4252	-1.0249	1.8407	-0.8642	-3.6483	-25.816	795.5407	-58.4094	321.639	65.4947	738.431	-0.0592	0.0182	-0.0073	-0.0462	0.0165	0.9585
13.275	-3.5053	-6.863	-0.62874	2.3639	-0.78862	-4.888	-25.6698	806.606	-58.1124	326.0126	64.725	744.7341	-0.0592	0.0182	-0.0073	-0.0462	0.0165	0.9585
13.2868	-2.5233	-6.3669	-0.27754	2.2103	-0.70052	-4.6255	-25.4918	811.2258	-57.2576	327.8249	63.4292	745.0828	-0.0592	0.0182	-0.0073	-0.0462	0.0165	0.9585
13.2986	-1.7103	-4.9217	-0.0024121	1.7159	-0.6132	-3.6111	-25.1277	809.6206	-56.062	327.1535	61.751	739.7178	-0.0592	0.0182	-0.0073	-0.0462	0.0165	0.9585
13.3104	-1.106	-3.1799	0.19475	1.1075	-0.53801	-2.3351	-24.463	802.6415	-54.6088	324.3472	59.7312	729.4284	-0.0592	0.0182	-0.0073	-0.0462	0.0165	0.9585
13.3221	-0.68672	-1.5234	0.30783	0.52092	-0.46563	-1.0972	-23.4124	791.715	-52.9094	319.9938	57.3552	715.5152	-0.0592	0.0182	-0.0073	-0.0462	0.0165	0.9585
13.3339	-0.42961	-0.14579	0.36645	0.028015	-0.41402	-0.049344	-21.9161	778.5766	-50.9517	314.8032	54.596	699.5382	-0.0592	0.0182	-0.0073	-0.0462	0.0165	0.9585
13.3457	-0.2799	0.90427	0.37065	-0.34918	-0.3643	0.7656	-19.9639	764.9186	-48.8113	309.4599	51.5218	682.9895	-0.0592	0.0182	-0.0073	-0.0462	0.0165	0.9585
13.3575	-0.21058	1.6465	0.35931	-0.61226	-0.33474	1.3699	-17.5768	752.1991	-46.6292	304.5408	48.2656	667.1611	-0.0592	0.0182	-0.0073	-0.0462	0.0165	0.9585
13.3693	-0.19197	2.1345	0.33284	-0.78086	-0.31104	1.8061	-14.8265	741.513	-44.5881	300.469	45.0111	653.0299	-0.0592	0.0182	-0.0073	-0.0462	0.0165	0.9585
13.3811	-0.20458	2.4383	0.31639	-0.88205	-0.30724	2.1212	-11.8368	733.5663	-42.8367	297.5104	41.9238	641.2381	-0.0592	0.0182	-0.0073	-0.0462	0.0165	0.9585
13.3929	-0.23834	2.628	0.30035	-0.94269	-0.31389	2.3543	-8.7304	728.6965	-41.4919	295.7814	39.147	632.1053	-0.0592	0.0182	-0.0073	-0.0462	0.0165	0.9585
13.4046	-0.28848	2.7592	0.29906	-0.98286	-0.3429	2.5389	-5.621	726.8842	-40.6182	295.2577	36.7731	625.6449	-0.0592	0.0182	-0.0073	-0.0462	0.0165	0.9585
13.4164	-0.34937	2.8642	0.3028	-1.0145	-0.38642	2.6965	-2.5841	727.8094	-40.2424	295.7962	34.8489	621.6058	-0.0592	0.0182	-0.0073	-0.0462	0.0165	0.9585
13.4282	-0.42906	2.9342	0.31736	-1.036	-0.44974	2.8129	0.31796	730.9165	-40.3539	297.1575	33.3839	619.5458	-0.0592	0.0182	-0.0073	-0.0462	0.0165	0.9585
13.44	-0.53156	2.9587	0.33393	-1.0429	-0.52349	2.8805	3.0555	735.5051	-40.8914	299.0471	32.3367	618.9065	-0.0592	0.0182	-0.0073	-0.0462	0.0165	0.9585
13.4518	-0.65846	2.8869	0.35265	-1.0154	-0.60495	2.8427	5.5976	740.8613	-41.7587	301.1674	31.6354	619.1421	-0.0592	0.0182	-0.0073	-0.0462	0.0165	0.9585
13.4636	-0.82488	2.6556	0.36747	-0.92793	-0.69277	2.6333	7.9316	746.3154	-42.8386	303.2434	31.1861	619.7342	-0.0592	0.0182	-0.0073	-0.0462	0.0165	0.9585
13.4754	-1.0121	2.1887	0.37768	-0.75481	-0.78132	2.1671	10.0248	751.3068	-44.0142	305.0466	30.8998	620.2539	-0.0592	0.0182	-0.0073	-0.0462	0.0165	0.9585
13.4871	-1.2078	1.4085	0.38228	-0.4669	-0.86619	1.3721	11.8758	755.4005	-45.1835	306.4003	30.691	620.3561	-0.0592	0.0182	-0.0073	-0.0462	0.0165	0.9585
13.4989	-1.3736	0.26292	0.38436	-0.041568	-0.93346	0.17955	13.4703	758.2484	-46.2741	307.1604	30.5032	619.7639	-0.0592	0.0182	-0.0073	-0.0462	0.0165	0.9585
13.5107	-1.4542	-1.27	0.38027	0.53233	-0.95789	-1.4278	14.8419	759.5377	-47.2475	307.1977	30.2939	618.2041	-0.0592	0.0182	-0.0073	-0.0462	0.0165	0.9585
13.5225	-1.3504	-3.1458	0.36308	1.2386	-0.89688	-3.4146	16.0543	759.0206	-48.122	306.4075	30.058	615.4443	-0.0592	0.0182	-0.0073	-0.0462	0.0165	0.9585
13.5343	-0.94605	-5.1915	0.32328	2.0119	-0.69743	-5.6024	17.1813	756.5728	-48.9568	304.7376	29.8213	611.3265	-0.0592	0.0182	-0.0073	-0.0462	0.0165	0.9585
13.5461	-0.077384	-7.0543	0.24813	2.7146	-0.28902	-7.632	18.3104	752.3343	-49.8365	302.2437	29.6256	605.9063	-0.0592	0.0182	-0.0073	-0.0462	0.0165	0.9585
13.5579	1.4162	-8.0979	0.12002	3.1026	0.40753	-8.8468	19.5396	746.7441	-50.8282	299.1093	29.4987	599.4783	-0.0592	0.0182	-0.0073	-0.0462	0.0165	0.9585
13.5696	3.6835	-7.367	-0.074299	2.8114	1.4618	-8.2589	20.9341	740.4618	-51.9617	295.614	29.4512	592.5233	-0.0592	0.0182	-0.0073	-0.0462	0.0165	0.9585
13.5814	6.7869	-3.5288	-0.34343	1.3342	2.9099	-4.485	22.5601	734.1942	-53.2299	292.0608	29.4647	585.577	-0.0592	0.0182	-0.0073	-0.0462	0.0165	0.9585
13.5932	10.63	5.0772	-0.67089	-1.9629	4.7024	4.1938	24.4476	728.4857	-54.5578	288.6906	29.4731	579.0694	-0.0592	0.0182	-0.0073	-0.0462	0.0165	0.9585
13.605	14.8403	20.2719	-1.0231	-7.7769	6.6694	19.6777	26.6158	723.5679	-55.8327	285.6182	29.3853	573.1924	-0.0592	0.0182	-0.0073	-0.0462	0.0165	0.9585
